<svg

					xmlns="http://www.w3.org/2000/svg"

					fill="none"

					viewBox="0 0 129 163"

					class="about__floatIcon Icon1"

				>

					<path

						fill="#22AF6E"

						d="M-29.5874.816305C-34.8228 12.6827-40.1824 24.947-40.7003 38.1016c-.4359 10.8139 3.1441 22.5643 11.3528 29.9739 9.6503 8.7125 23.73549 8.2197 35.91194 7.6546C20.3221 75.0928 33.9802 73.111 47.747 72.7382c12.3756-.3362 24.7489.749 36.2962 5.5037 10.1329 4.1784 19.7318 10.8173 25.5168 20.3143 5.785 9.4968 6.488 21.0908 2.842 31.6518-1.839 5.324-4.641 10.314-7.919 14.877-1.704 2.368-3.567 4.618-5.5323 6.774-1.7858 1.952-3.6343 4.084-5.7831 5.635-1.6884 1.228-3.7809 2.343-5.9085 2.439-2.1276.095-3.4761-1.216-3.1875-3.368.3773-2.873 2.817-5.604 4.7361-7.623 2.0714-2.186 4.4389-4.038 6.9628-5.677 4.9975-3.255 10.5355-5.854 16.0405-8.138 4.261-1.766 11.277-3.635 13.323 2.138.555 1.566.533 3.451-1 4.425-1.532.973-.065 3.298 1.435 2.344 4.145-2.638 2.9-8.641-.395-11.453-4.849-4.14-11.843-1.161-16.817 1.076-5.779 2.592-11.6114 5.295-16.7027 9.12-2.4783 1.864-4.7902 3.977-6.7102 6.425-1.92 2.448-3.9151 5.299-3.6362 8.433.2115 2.399 1.8717 4.431 4.2504 4.912 2.3787.481 4.6366-.291 6.6689-1.284 2.3581-1.153 4.2285-2.91 6.0585-4.741 2.1423-2.14 4.1663-4.389 6.0543-6.752 7.362-9.206 13.004-20.417 13.146-32.424.141-12.007-5.453-22.5693-14.084-30.3537-8.6311-7.7843-20.1852-12.9949-31.7566-15.3399-13.6478-2.7697-27.8344-1.7329-41.5877-.5152-7.2071.6368-14.4154 1.3694-21.64417 1.7645-7.22876.3952-14.18064.6918-21.11373-.3423-6.2066-.9278-11.8833-3.333-16.2517-7.9251-3.9462-4.1507-6.481-9.4976-7.8476-15.027-3.1884-12.9115.7274-26.1539 5.6215-38.1131 1.2848-3.13367 2.6464-6.23219 4.008-9.33072.7122-1.605948-1.6876-2.958179-2.4035-1.332081l-.0139-.015094Z"

					/>

				</svg>