<svg xmlns="http://www.w3.org/2000/svg" fill="none" viewBox="0 0 237 228"
    class="about__floatIcon Icon2">

    <path fill="#FFB3D2"
        d="M220.809 1.1105c7.326 16.6053 14.826 33.7676 15.55 52.1756.61 15.1326-4.399 31.5756-15.886 41.9444-13.504 12.1915-33.215 11.5025-50.254 10.7115-19.252-.892-38.365-3.665-57.629-4.187-17.3183-.47-34.633 1.048-50.7919 7.702-14.1796 5.847-27.6122 15.137-35.7071 28.427-8.095 13.29-9.0787 29.513-3.9776 44.293 2.5734 7.45 6.4951 14.432 11.0816 20.818 2.3856 3.313 4.9916 6.462 7.7422 9.479 2.4989 2.732 5.0857 5.715 8.0926 7.886 2.3626 1.718 5.2909 3.278 8.2682 3.412 2.9773.133 4.8643-1.701 4.4604-4.712-.528-4.021-3.9419-7.842-6.6276-10.667-2.8985-3.06-6.2116-5.652-9.7434-7.945-6.9932-4.555-14.7431-8.192-22.4459-11.389-5.963-2.471-15.78053-5.086-18.64464 2.992-.77568 2.193-.7449 4.83 1.39958 6.192 2.14448 1.363.09042 4.616-2.00827 3.281-5.79957-3.692-4.0574-12.092.55372-16.027 6.78531-5.793 16.57131-1.625 23.53251 1.506 8.0865 3.627 16.2485 7.409 23.373 12.762 3.4681 2.609 6.7033 5.565 9.39 8.991 2.6868 3.426 5.4787 7.415 5.0884 11.8-.2959 3.358-2.6191 6.201-5.9478 6.874-3.3288.673-6.4883-.407-9.3322-1.796-3.2999-1.614-5.9172-4.072-8.478-6.635-2.9973-2.994-5.8306-6.142-8.4716-9.448C23.094 196.669 15.1978 180.981 15 164.178c-.1977-16.802 7.6309-31.583 19.7086-42.476 12.0776-10.893 28.246-18.185 44.4385-21.466 19.0983-3.8759 38.9509-2.4251 58.1959-.7212 10.086.8912 20.173 1.9162 30.288 2.4692 10.116.553 19.844.968 29.546-.479 8.685-1.298 16.629-4.664 22.742-11.09 5.522-5.8083 9.069-13.2906 10.982-21.0282 4.462-18.0679-1.018-36.5988-7.867-53.334-1.798-4.3852-3.703-8.72115-5.608-13.05711-.997-2.247309 2.361-4.13957 3.363-1.86407l.02-.02112Z"></path>

</svg>