<svg xmlns="http://www.w3.org/2000/svg" fill="none" viewBox="0 0 133 60">
  <path fill="#000" d="M41.2719 25.2797h-11.611V12.1479h-.9533l-1.8722 13.1318H16.2799l-1.8722-13.1318h-.9533v13.1318H2.04492V.702637H19.82L20.7389 13.027h.9533L22.6111.702637h18.6608V25.2797Zm30.252-12.2884c0 8.9525-4.5969 12.9912-14.7785 12.9912-10.1817 0-14.7786-4.0374-14.7786-12.9912C41.9668 4.03739 46.5637 0 56.7454 0 66.927 0 71.5239 4.03739 71.5239 12.9913Zm-16.2768 0c0 2.8785.3739 3.8265 1.4983 3.8265 1.1243 0 1.4982-.948 1.4982-3.8265 0-2.8786-.3739-3.82662-1.4982-3.82662-1.1244 0-1.4983.94802-1.4983 3.82662Z"/>
  <path fill="#000" d="M100.536 12.9913c0 8.9525-4.5973 12.9912-14.7789 12.9912-10.1817 0-14.7786-4.0374-14.7786-12.9912C70.9785 4.03739 75.5754 0 85.7571 0c10.1816 0 14.7789 4.03739 14.7789 12.9913Zm-16.2772 0c0 2.8785.3739 3.8265 1.4983 3.8265s1.4983-.948 1.4983-3.8265c0-2.8786-.3739-3.82662-1.4983-3.82662s-1.4983.94802-1.4983 3.82662Zm31.1792 12.2884-1.907-12.5338h-.987v12.5338h-11.407V.702637h17.23l1.907 12.533763h.783V.702637h11.407V25.2797h-17.026Zm-57.5065 1.8907c8.2962 0 11.3074 2.3455 11.3074 8.7961 0 3.4487-.8698 5.4495-2.9104 6.7608l3.6131 8.5892H56.6945l-1.8404-6.3471h-1.1045v6.3471H41.2715V27.1717h16.6587l.0013-.0013Zm-4.1819 6.2782v5.2426h.5357c1.6733 0 2.2752-.6894 2.2752-2.6213 0-1.9318-.6019-2.6213-2.2752-2.6213h-.5357Zm29.8066 17.8666H71.0449V27.1704h12.5113v24.1448Zm24.6548-23.8345-.369 8.8995c-1.238-.9308-3.646-1.5182-6.255-1.5182-2.1071 0-2.9769.3448-2.9769 1.3803 7.1589 0 10.3699 2.2076 10.3699 7.6571 0 5.8287-3.613 8.1053-13.0124 8.1053-3.4792 0-6.8908-.3103-10.7386-.9997l.4018-9.2787c1.4386.9652 4.1819 1.5871 7.0923 1.5871 2.2408 0 3.145-.3448 3.145-1.4148-7.4595 0-10.704-2.1042-10.704-7.4158 0-5.7253 3.6462-8.0018 13.1132-8.0018 3.4787 0 6.7917.3102 9.9347.9997h-.001Zm24.252 7.3813h-9.501v1.8284h8.832v5.1048h-8.832v1.8284h9.501v7.6916h-22.012V27.1704h22.012v7.6916Z"/>
  <path fill="#FFB3D2" d="M26.4598 27.1704 8.00053 30.7225 0 46.8084l15.0358 13.1915h19.7454L40.48 41.9675 26.4585 27.1704h.0013Zm-10.0146 24.174c-4.6048 0-8.33992-3.8518-8.33992-8.5999 0-4.748 3.73512-8.5958 8.33992-8.5958 4.6049 0 8.3374 3.8478 8.3374 8.5958 0 4.7481-3.7325 8.5999-8.3374 8.5999Z"/>
</svg>
